<svg xmlns="http://www.w3.org/2000/svg" width="46.667" height="42" viewBox="0 0 46.667 42">
  <path id="_007-suitcase" data-name="007-suitcase" d="M44.333,7H34.222V3.889A3.893,3.893,0,0,0,30.333,0h-14a3.893,3.893,0,0,0-3.889,3.889V7H2.333A2.333,2.333,0,0,0,0,9.333V26.646a2.343,2.343,0,0,0,1.556,2.2V39.667A2.333,2.333,0,0,0,3.889,42H42.778a2.333,2.333,0,0,0,2.333-2.333V28.843a2.344,2.344,0,0,0,1.556-2.2V9.333A2.333,2.333,0,0,0,44.333,7ZM14,3.889a2.333,2.333,0,0,1,2.333-2.333h14a2.333,2.333,0,0,1,2.333,2.333V7H31.111V3.889a.778.778,0,0,0-.778-.778h-14a.778.778,0,0,0-.778.778V7H14ZM29.556,7H17.111V4.667H29.556Zm14,32.667a.778.778,0,0,1-.778.778H3.889a.778.778,0,0,1-.778-.778V29.11l17.111,2.36v1.975a2.333,2.333,0,0,0,2.333,2.333h1.556a2.333,2.333,0,0,0,2.333-2.333V31.47l17.111-2.36ZM24.889,33.444a.778.778,0,0,1-.778.778H22.556a.778.778,0,0,1-.778-.778V28.778A.778.778,0,0,1,22.556,28h1.556a.778.778,0,0,1,.778.778Zm20.222-6.8a.778.778,0,0,1-.669.771l-.216.03L26.444,29.9V28.778a2.333,2.333,0,0,0-2.333-2.333H22.556a2.333,2.333,0,0,0-2.333,2.333V29.9l-18-2.482a.778.778,0,0,1-.67-.771V9.333a.778.778,0,0,1,.778-.778h42a.778.778,0,0,1,.778.778Zm0,0" transform="translate(0)" fill="#fff"/>
</svg>
