<svg xmlns="http://www.w3.org/2000/svg" width="28.479" height="37.973" viewBox="0 0 28.479 37.973">
  <path id="_009-agenda" data-name="009-agenda" d="M10.981,0A3.485,3.485,0,0,0,7.516,3.8H7.5V34.782a3.2,3.2,0,0,0,3.191,3.191H35.98V0ZM8.766,34.782V6.328a3.148,3.148,0,0,0,1.9.634V36.7A1.926,1.926,0,0,1,8.766,34.782Zm25.948,1.925H11.93V6.962h1.9V22.911a.939.939,0,0,0,.7.914.988.988,0,0,0,.258.035c.009,0,.018,0,.028,0,.028,0,.056-.008.084-.011a.91.91,0,0,0,.189-.042.813.813,0,0,0,.087-.035.91.91,0,0,0,.166-.1c.023-.017.046-.032.067-.051a.927.927,0,0,0,.185-.219l2.669-4.448L20.927,23.4a.93.93,0,0,0,.981.435c.028-.005.056,0,.085-.009a.94.94,0,0,0,.7-.914V6.962H34.713V36.707ZM21.512,6l0,0-.087.173v.027l-.063.146.063.1V21.765l-3.164-5.274-3.164,5.274V6.478L16.119,4.43H22.3ZM23.08,5.7l1.266-2.532h-9.01L14.071,5.7H11.115A2.31,2.31,0,0,1,8.778,3.709,2.19,2.19,0,0,1,9.339,2a2.217,2.217,0,0,1,1.642-.734H34.714V1.9H31.549a.633.633,0,0,0,0,1.266h3.164V3.8H32.182a.633.633,0,1,0,0,1.266h2.532V5.7Z" transform="translate(-7.5)" fill="#fff"/>
</svg>
