<svg xmlns="http://www.w3.org/2000/svg" xmlns:xlink="http://www.w3.org/1999/xlink" width="42.818" height="28.123" viewBox="0 0 42.818 28.123">
  <defs>
    <clipPath id="clip-path">
      <rect width="42.819" height="28.123" fill="none"/>
    </clipPath>
  </defs>
  <g id="Component_20_1" data-name="Component 20 – 1" clip-path="url(#clip-path)">
    <g id="Group_28" data-name="Group 28">
      <g id="Group_27" data-name="Group 27" transform="translate(0 0)">
        <path id="Path_108" data-name="Path 108" d="M42.8,74.559a39.97,39.97,0,0,0-1.173-7.733,29.681,29.681,0,0,0-2.4-6.507c-3.733-6.56-7.787-5.547-12.64-4.267a34.743,34.743,0,0,1-4.907.96h-.533a34.743,34.743,0,0,1-4.907-.96c-4.853-1.227-8.906-2.293-12.64,4.32a27.188,27.188,0,0,0-2.4,6.507A39.968,39.968,0,0,0,.023,74.612a14.532,14.532,0,0,0,.747,6.08,4.042,4.042,0,0,0,2.56,2.4,5.214,5.214,0,0,0,3.413-.373,25.067,25.067,0,0,0,6.827-4.853c1.653-1.6,4.747-2.4,7.84-2.4s6.187.8,7.84,2.4a25.067,25.067,0,0,0,6.827,4.853,5.579,5.579,0,0,0,3.413.373,3.985,3.985,0,0,0,2.56-2.453A14.26,14.26,0,0,0,42.8,74.559Zm-2.56,5.333a2.115,2.115,0,0,1-1.28,1.333,3.683,3.683,0,0,1-2.187-.267,21.75,21.75,0,0,1-6.187-4.427c-2.027-2.027-5.6-3.04-9.173-3.04s-7.147,1.013-9.226,2.933A22.16,22.16,0,0,1,6,80.852a3.308,3.308,0,0,1-2.187.267,2.115,2.115,0,0,1-1.28-1.333A12.611,12.611,0,0,1,2,74.665a36.787,36.787,0,0,1,1.12-7.36,25.448,25.448,0,0,1,2.24-6.027c2.933-5.28,6.347-4.427,10.4-3.36a31.287,31.287,0,0,0,5.227,1.013h.8a30.9,30.9,0,0,0,5.28-1.013c4.053-1.013,7.467-1.92,10.4,3.36a24.592,24.592,0,0,1,2.24,6.027,40.366,40.366,0,0,1,1.12,7.36A12.341,12.341,0,0,1,40.236,79.892Z" transform="translate(0 -55.109)" fill="#fff"/>
      </g>
    </g>
    <g id="Group_30" data-name="Group 30" transform="translate(5.516 5.316)">
      <g id="Group_29" data-name="Group 29" transform="translate(0 0)">
        <path id="Path_109" data-name="Path 109" d="M52.359,98.714a3.241,3.241,0,0,0-1.92-.907,3.035,3.035,0,0,0-.853-1.867l-.053-.053a3.021,3.021,0,0,0-2.187-.907,3.149,3.149,0,0,0-2.187.907,3.1,3.1,0,0,0-.907,1.92,3.177,3.177,0,0,0-1.92.853l-.053.053a3.021,3.021,0,0,0-.907,2.187,3.149,3.149,0,0,0,.907,2.187,2.973,2.973,0,0,0,1.973.907,2.845,2.845,0,0,0,.907,1.92,3.021,3.021,0,0,0,2.187.907,3.149,3.149,0,0,0,2.187-.907,3.24,3.24,0,0,0,.907-1.92,2.845,2.845,0,0,0,1.92-.907,3.021,3.021,0,0,0,.907-2.187A3.149,3.149,0,0,0,52.359,98.714ZM51.026,101.7a1.085,1.085,0,0,1-.8.32H49.48a1.013,1.013,0,0,0-1.013,1.013v.693a1.12,1.12,0,1,1-2.24,0v-.747a1.013,1.013,0,0,0-1.013-1.013h-.747a1.094,1.094,0,0,1-.8-1.867l.053-.053a1.274,1.274,0,0,1,.747-.267h.747a1.013,1.013,0,0,0,1.013-1.013v-.747a1.131,1.131,0,0,1,1.92-.8l.053.053a1.274,1.274,0,0,1,.267.747v.747a1.013,1.013,0,0,0,1.013,1.013h.747a1.131,1.131,0,0,1,.8,1.92Z" transform="translate(-41.373 -94.981)" fill="#fff"/>
      </g>
    </g>
    <g id="Group_32" data-name="Group 32" transform="translate(28.823 5.583)">
      <g id="Group_31" data-name="Group 31" transform="translate(0 0)">
        <ellipse id="Ellipse_15" data-name="Ellipse 15" cx="1.867" cy="1.867" rx="1.867" ry="1.867" fill="#fff"/>
      </g>
    </g>
    <g id="Group_34" data-name="Group 34" transform="translate(28.823 13.156)">
      <g id="Group_33" data-name="Group 33" transform="translate(0 0)">
        <ellipse id="Ellipse_16" data-name="Ellipse 16" cx="1.867" cy="1.867" rx="1.867" ry="1.867" fill="#fff"/>
      </g>
    </g>
    <g id="Group_36" data-name="Group 36" transform="translate(25.036 9.369)">
      <g id="Group_35" data-name="Group 35" transform="translate(0 0)">
        <ellipse id="Ellipse_17" data-name="Ellipse 17" cx="1.867" cy="1.867" rx="1.867" ry="1.867" fill="#fff"/>
      </g>
    </g>
    <g id="Group_38" data-name="Group 38" transform="translate(32.609 9.369)">
      <g id="Group_37" data-name="Group 37" transform="translate(0 0)">
        <ellipse id="Ellipse_18" data-name="Ellipse 18" cx="1.867" cy="1.867" rx="1.867" ry="1.867" fill="#fff"/>
      </g>
    </g>
  </g>
</svg>
