<svg xmlns="http://www.w3.org/2000/svg" xmlns:xlink="http://www.w3.org/1999/xlink" width="39.827" height="45.169" viewBox="0 0 39.827 45.169">
  <defs>
    <clipPath id="clip-path">
      <rect width="39.827" height="45.169" fill="none"/>
    </clipPath>
  </defs>
  <g id="Component_22_1" data-name="Component 22 – 1" transform="translate(0)" clip-path="url(#clip-path)">
    <g id="smartphone-and-tablet">
      <path id="Path_13700" data-name="Path 13700" d="M98.549,21.026H94.32a.706.706,0,0,0,0,1.411h4.229a.706.706,0,0,0,0-1.411Z" transform="translate(-80.574 -17.497)" fill="#fff"/>
      <path id="Path_13701" data-name="Path 13701" d="M78.706,21.237a.683.683,0,0,0,0,.988.761.761,0,0,0,.493.212.7.7,0,0,0,.493-1.2A.68.68,0,0,0,78.706,21.237Z" transform="translate(-67.992 -17.497)" fill="#fff"/>
      <path id="Path_13702" data-name="Path 13702" d="M99.586,109.993a.681.681,0,0,0,.987,0,.683.683,0,0,0,0-.988l-2.82-2.823a.7.7,0,1,0-.987.988Z" transform="translate(-83.021 -88.185)" fill="#fff"/>
      <path id="Path_13703" data-name="Path 13703" d="M66.526,109.546a.683.683,0,0,0,0,.988l10.08,10.092a.681.681,0,0,0,.987,0,.683.683,0,0,0,0-.988l-10.08-10.092A.681.681,0,0,0,66.526,109.546Z" transform="translate(-57.856 -90.985)" fill="#fff"/>
      <path id="Path_13704" data-name="Path 13704" d="M102.03,235.519a2.117,2.117,0,1,0-2.115-2.117A2.078,2.078,0,0,0,102.03,235.519Zm0-2.823a.706.706,0,1,1-.7.706A.707.707,0,0,1,102.03,232.7Z" transform="translate(-85.817 -192.468)" fill="#fff"/>
      <path id="Path_13705" data-name="Path 13705" d="M52.358,12.7H48.2l.141-9.881A2.83,2.83,0,0,0,45.521,0H18.735a2.83,2.83,0,0,0-2.82,2.823V42.346a2.83,2.83,0,0,0,2.82,2.823H52.358a3.438,3.438,0,0,0,3.384-3.74V16.444A3.438,3.438,0,0,0,52.358,12.7ZM28.251,15.6,21.131,8.469h18.4a.666.666,0,0,0,.7-.706.666.666,0,0,0-.7-.706H19.087a.666.666,0,0,0-.7.706V37.406a.666.666,0,0,0,.7.706H36v3.317a3.2,3.2,0,0,0,.987,2.329H18.735a1.415,1.415,0,0,1-1.41-1.411V2.823a1.415,1.415,0,0,1,1.41-1.411H45.521a1.415,1.415,0,0,1,1.41,1.411L46.79,12.7H45.168V7.763a.666.666,0,0,0-.7-.706h-1.41a.666.666,0,0,0-.7.706.666.666,0,0,0,.7.706h.7V12.7H40.163A4.276,4.276,0,0,0,36,16.585V36.7H19.792V9.1l7.472,7.481a.681.681,0,0,0,.987,0A.683.683,0,0,0,28.251,15.6ZM54.332,41.428a2.1,2.1,0,0,1-1.974,2.329H40.163c-1.2,0-2.749-1.059-2.749-2.329V16.585a2.821,2.821,0,0,1,2.749-2.47H52.358a2.1,2.1,0,0,1,1.974,2.329Z" transform="translate(-15.915)" fill="#fff"/>
      <path id="Path_13706" data-name="Path 13706" d="M189.525,241.8a1.411,1.411,0,1,0,1.41,1.411A1.415,1.415,0,0,0,189.525,241.8Zm0,2.117a.706.706,0,1,1,.7-.706A.707.707,0,0,1,189.525,243.914Z" transform="translate(-159.214 -201.216)" fill="#fff"/>
      <path id="Path_13707" data-name="Path 13707" d="M182.52,93.925h2.82a.706.706,0,0,0,0-1.411h-2.82a.706.706,0,0,0,0,1.411Z" transform="translate(-153.972 -76.987)" fill="#fff"/>
      <path id="Path_13708" data-name="Path 13708" d="M172.02,94.344a.64.64,0,0,0,.493-.212.683.683,0,0,0,0-.988.681.681,0,0,0-.987,0,.763.763,0,0,0-.211.494.641.641,0,0,0,.211.494A.76.76,0,0,0,172.02,94.344Z" transform="translate(-145.234 -77.335)" fill="#fff"/>
      <path id="Path_13709" data-name="Path 13709" d="M163.018,105.129h-14.1a.666.666,0,0,0-.7.706v21.173a.666.666,0,0,0,.7.706h14.1a.666.666,0,0,0,.7-.706V105.835A.666.666,0,0,0,163.018,105.129Zm-.7,21.173H149.625V106.54h12.688Z" transform="translate(-126.011 -87.485)" fill="#fff"/>
    </g>
  </g>
</svg>
