<svg xmlns="http://www.w3.org/2000/svg" xmlns:xlink="http://www.w3.org/1999/xlink" width="40.643" height="45.169" viewBox="0 0 40.643 45.169">
  <defs>
    <clipPath id="clip-path">
      <rect width="40.643" height="45.169" fill="none"/>
    </clipPath>
  </defs>
  <g id="Component_21_1" data-name="Component 21 – 1" transform="translate(0)" clip-path="url(#clip-path)">
    <g id="Group_40" data-name="Group 40">
      <path id="Path_116" data-name="Path 116" d="M66.286,18.7,64.437,7.605a4.466,4.466,0,0,0-3.411-3.628L53.95,2.344,52.6.315a.707.707,0,0,0-.5-.309A.686.686,0,0,0,52.009,0H39.939a.687.687,0,0,0-.093.006.707.707,0,0,0-.5.309L38,2.344,30.921,3.977A4.466,4.466,0,0,0,27.51,7.605L25.662,18.7a.707.707,0,0,0,.435.773l7.1,2.84V44.462a.707.707,0,0,0,.707.707H58.044a.707.707,0,0,0,.707-.707V22.309l7.1-2.84A.708.708,0,0,0,66.286,18.7ZM52.676,2.983,49.6,7.912a.047.047,0,0,1-.069.012l-2.45-1.96L51.868,1.77ZM50.126,1.414,45.974,5.048,41.821,1.414Zm-3.351,6.12v6.751a.047.047,0,0,1-.047.047H45.219a.047.047,0,0,1-.047-.047V7.535l.8-.641ZM40.08,1.77l4.792,4.193-2.45,1.96a.045.045,0,0,1-.037.01.044.044,0,0,1-.032-.022L39.272,2.983ZM33.2,20.785l-6.045-2.418.234-1.4L33.2,19.291ZM57.337,43.754H34.611v-1.6H57.337v1.6Zm.707-30.93a.707.707,0,0,0-.707.707V40.737H34.611V13.532a.707.707,0,0,0-1.415,0v4.236l-5.574-2.23,1.283-7.7a3.056,3.056,0,0,1,2.334-2.482L38.1,3.773l3.055,4.889a1.462,1.462,0,0,0,2.153.367l.452-.362v5.62a1.463,1.463,0,0,0,1.462,1.462h1.509a1.463,1.463,0,0,0,1.462-1.462V8.667l.452.362a1.462,1.462,0,0,0,2.153-.367L53.85,3.773l6.858,1.583a3.056,3.056,0,0,1,2.334,2.482l1.283,7.7-5.574,2.23V13.532A.707.707,0,0,0,58.044,12.825Zm.707,7.961V19.291l5.812-2.325.234,1.4Z" transform="translate(-25.652)" fill="#fff"/>
    </g>
  </g>
</svg>
