<svg xmlns="http://www.w3.org/2000/svg" xmlns:xlink="http://www.w3.org/1999/xlink" width="51.003" height="28.661" viewBox="0 0 51.003 28.661">
  <defs>
    <clipPath id="clip-path">
      <rect width="51.004" height="28.661" fill="none"/>
    </clipPath>
  </defs>
  <g id="Component_25_1" data-name="Component 25 – 1" transform="translate(0)" clip-path="url(#clip-path)">
    <path id="Clocks" d="M50.223,23.755a2.68,2.68,0,0,0-2.046-1H47.018V21.82a3.161,3.161,0,0,0-3.254-3.049H42.237V17.044a3.014,3.014,0,0,0-.95-2.176,3.368,3.368,0,0,0-4.475,0,3.015,3.015,0,0,0-.951,2.177v8.1H15.141v-8.1a3.011,3.011,0,0,0-.95-2.176,3.368,3.368,0,0,0-4.475,0,3.012,3.012,0,0,0-.951,2.176v1.727H7.053a3.169,3.169,0,0,0-2.146.819,2.812,2.812,0,0,0-.922,2.058v1.106H2.837a2.691,2.691,0,0,0-2.055,1A3.5,3.5,0,0,0,0,26v4.667a3.5,3.5,0,0,0,.783,2.241,2.69,2.69,0,0,0,2.054,1H3.985v1.106a2.814,2.814,0,0,0,.924,2.06,3.165,3.165,0,0,0,2.145.818H8.766v1.727a3.011,3.011,0,0,0,.95,2.176,3.288,3.288,0,0,0,4.476,0,3.011,3.011,0,0,0,.95-2.176v-8.1h20.72v8.1a3.011,3.011,0,0,0,.95,2.176,3.288,3.288,0,0,0,4.475,0,3.014,3.014,0,0,0,.95-2.176V37.9h1.528a3.16,3.16,0,0,0,3.254-3.049v-.936h1.159a2.686,2.686,0,0,0,2.047-1A3.484,3.484,0,0,0,51,30.681V25.987A3.487,3.487,0,0,0,50.223,23.755ZM2.837,32.318a1.091,1.091,0,0,1-.83-.43,1.926,1.926,0,0,1-.414-1.221V26a1.927,1.927,0,0,1,.414-1.221,1.091,1.091,0,0,1,.83-.43H3.985v7.969ZM7.053,36.3a1.592,1.592,0,0,1-1.067-.4,1.2,1.2,0,0,1-.407-.885V21.649a1.2,1.2,0,0,1,.406-.885,1.6,1.6,0,0,1,1.069-.4H8.766V36.3Zm6.495,3.321a1.393,1.393,0,0,1-.45,1.017,1.756,1.756,0,0,1-2.286,0,1.392,1.392,0,0,1-.451-1.017V17.044a1.393,1.393,0,0,1,.45-1.017,1.7,1.7,0,0,1,2.287,0,1.394,1.394,0,0,1,.45,1.018V39.624Zm1.594-9.7V26.74h20.72v3.188Zm25.5,9.7a1.393,1.393,0,0,1-.45,1.017,1.756,1.756,0,0,1-2.286,0,1.392,1.392,0,0,1-.451-1.017V17.044a1.393,1.393,0,0,1,.45-1.017,1.7,1.7,0,0,1,2.287,0,1.391,1.391,0,0,1,.45,1.017V39.624Zm4.782-4.776a1.569,1.569,0,0,1-1.66,1.455H42.237V20.364h1.528a1.57,1.57,0,0,1,1.66,1.455V34.848Zm3.985-4.168A1.918,1.918,0,0,1,49,31.891a1.082,1.082,0,0,1-.822.427H47.018V24.349h1.159a1.082,1.082,0,0,1,.822.427,1.911,1.911,0,0,1,.41,1.211Z" transform="translate(0 -14.017)" fill="#fff"/>
  </g>
</svg>
