<svg xmlns="http://www.w3.org/2000/svg" xmlns:xlink="http://www.w3.org/1999/xlink" width="48.557" height="27.144" viewBox="0 0 48.557 27.144">
  <defs>
    <clipPath id="clip-path">
      <rect width="48.557" height="27.144" fill="none"/>
    </clipPath>
  </defs>
  <g id="Component_24_1" data-name="Component 24 – 1" transform="translate(0)" clip-path="url(#clip-path)">
    <g id="Group_8796" data-name="Group 8796">
      <path id="Path_13717" data-name="Path 13717" d="M46.15,120.323h-.965v-3.585a3.848,3.848,0,0,0-3.844-3.844H27.411a3.841,3.841,0,0,0-3.133,1.62,3.841,3.841,0,0,0-3.133-1.62H12.394a.711.711,0,0,0,0,1.423h8.752a2.424,2.424,0,0,1,2.421,2.421v7.114l-.046-.042a4.651,4.651,0,0,0-3.139-1.239H8.534a2.439,2.439,0,0,0-1.612-2.113,2.364,2.364,0,0,0-.789-.134H4.794v-3.585a2.424,2.424,0,0,1,2.421-2.421H9.549a.711.711,0,0,0,0-1.423H7.215a3.848,3.848,0,0,0-3.844,3.844v3.585H2.407A2.409,2.409,0,0,0,0,122.73v7.427a5.017,5.017,0,0,0,5.012,5.012h.357l-.779,2.1a2.077,2.077,0,0,0,1.928,2.773H7.662a2.067,2.067,0,0,0,1.64-.816l3.066-4.054H36.189l3.066,4.054a2.068,2.068,0,0,0,1.64.816H42.04a2.077,2.077,0,0,0,1.928-2.773l-.779-2.1h.358a5.017,5.017,0,0,0,5.012-5.012V122.73A2.409,2.409,0,0,0,46.15,120.323ZM24.99,116.738a2.424,2.424,0,0,1,2.421-2.421H41.342a2.424,2.424,0,0,1,2.421,2.421v3.585H42.424A2.463,2.463,0,0,0,40.2,121.8a2.391,2.391,0,0,0-.182.77H28.175a4.666,4.666,0,0,0-3.185,1.281v-7.114ZM8.54,123.993H20.382a3.189,3.189,0,0,1,3.185,3.185v1.011H8.54Zm-.372,14.37a.637.637,0,0,1-.506.252H6.517a.639.639,0,0,1-.594-.855l.964-2.592h3.7Zm33.872.251H40.9a.637.637,0,0,1-.506-.251l-2.417-3.2h3.7l.964,2.592A.64.64,0,0,1,42.04,138.615Zm1.506-4.869H5.012a3.593,3.593,0,0,1-3.589-3.589V122.73a.985.985,0,0,1,.984-.984H6.133a.985.985,0,0,1,.984.984V128.9a.711.711,0,0,0,.711.711H33.954a.711.711,0,1,0,0-1.423H24.99v-1.011a3.188,3.188,0,0,1,3.185-3.185H40.017v4.2H36.8a.711.711,0,1,0,0,1.423h3.93a.711.711,0,0,0,.711-.711V122.73a.985.985,0,0,1,.984-.984H46.15a.985.985,0,0,1,.984.984v7.427h0A3.593,3.593,0,0,1,43.545,133.746Z" transform="translate(0 -112.894)" fill="#fff"/>
    </g>
  </g>
</svg>
