<svg xmlns="http://www.w3.org/2000/svg" xmlns:xlink="http://www.w3.org/1999/xlink" width="38.05" height="46.217" viewBox="0 0 38.05 46.217">
  <defs>
    <clipPath id="clip-path">
      <rect width="38.05" height="46.217" fill="none"/>
    </clipPath>
  </defs>
  <g id="Component_26_1" data-name="Component 26 – 1" transform="translate(0)" clip-path="url(#clip-path)">
    <path id="Path_13718" data-name="Path 13718" d="M0,37.9A4.106,4.106,0,0,0,4.1,42H15.586a4.106,4.106,0,0,0,4.1-4.1V18.867a4.106,4.106,0,0,0-2.35-3.708,3.277,3.277,0,0,0-.932-4.876c0-.226,0-.435,0-.439a3.912,3.912,0,0,0-1.884-3.069A4.835,4.835,0,0,1,12.3,2.49V2.461a2.461,2.461,0,0,0-4.922,0A4.944,4.944,0,0,1,5.142,6.816a3.906,3.906,0,0,0-1.86,3.028s0,.213,0,.44a3.277,3.277,0,0,0-.932,4.876A4.106,4.106,0,0,0,0,18.867v5.988a.82.82,0,1,0,1.641,0V18.867A2.464,2.464,0,0,1,4.1,16.406H15.586a2.464,2.464,0,0,1,2.461,2.461V20.18h-4.1a.82.82,0,0,0,0,1.641h4.1V25.1h-4.1a.82.82,0,0,0,0,1.641h4.1v3.281h-4.1a.82.82,0,0,0,0,1.641h4.1v3.281h-4.1a.82.82,0,1,0,0,1.641h4.1V37.9a2.464,2.464,0,0,1-2.461,2.461H4.1A2.464,2.464,0,0,1,1.641,37.9v-6.48a.82.82,0,1,0-1.641,0ZM6.19,8.078A6.534,6.534,0,0,0,9.023,2.461a.82.82,0,1,1,1.641,0V2.49A6.42,6.42,0,0,0,13.48,8.042c.845.694,1.286,1.089,1.286,1.8H4.922c0-.68.435-1.073,1.269-1.766ZM4.922,11.484h9.844a1.641,1.641,0,0,1,0,3.281H4.922a1.641,1.641,0,0,1,0-3.281Zm0,0" transform="translate(21 0) rotate(30)" fill="#fff"/>
    <path id="Path_13719" data-name="Path 13719" d="M.82,1.641A.82.82,0,1,0,0,.82.821.821,0,0,0,.82,1.641Zm0,0" transform="translate(7.342 23.657) rotate(30)" fill="#fff"/>
  </g>
</svg>
