<svg xmlns="http://www.w3.org/2000/svg" xmlns:xlink="http://www.w3.org/1999/xlink" width="44.829" height="40.459" viewBox="0 0 44.829 40.459">
  <defs>
    <clipPath id="clip-path">
      <rect width="44.828" height="40.459" fill="none"/>
    </clipPath>
  </defs>
  <g id="Component_30_1" data-name="Component 30 – 1" transform="translate(0)" clip-path="url(#clip-path)">
    <path id="Path_13740" data-name="Path 13740" d="M40.876,262.6a.876.876,0,1,0,.876.876A.876.876,0,0,0,40.876,262.6Zm0,0" transform="translate(-36.498 -239.65)" fill="#fff"/>
    <path id="Path_13741" data-name="Path 13741" d="M40.242,229.136l-8.254,2.838a3.494,3.494,0,0,0-3.445-4.123h-5.67a.876.876,0,0,1-.43-.113l-4.626-2.6a6.134,6.134,0,0,0-3.006-.788H8.6A2.63,2.63,0,0,0,6.129,222.6H.876a.875.875,0,0,0-.876.876v15.76a.876.876,0,0,0,.876.876H6.129a2.632,2.632,0,0,0,2.451-1.685,7.993,7.993,0,0,1,2.859.849l4.579,2.747a11.162,11.162,0,0,0,10.362.591l16.342-7.2a3.375,3.375,0,0,0-2.479-6.279ZM7,237.486a.877.877,0,0,1-.876.871H1.751V224.348H6.129a.877.877,0,0,1,.876.876Zm35.051-3.69-.028.011-16.369,7.208a9.41,9.41,0,0,1-8.74-.5L12.34,237.77a9.654,9.654,0,0,0-3.584-1.09V226.1h6.056a4.381,4.381,0,0,1,2.147.563l4.626,2.6a2.63,2.63,0,0,0,1.289.338h5.67a1.751,1.751,0,0,1,0,3.5h-8.9a.875.875,0,1,0,0,1.751h8.9a3.5,3.5,0,0,0,1.641-.41l10.646-3.66a1.625,1.625,0,1,1,1.226,3.01Zm0,0" transform="translate(0 -203.151)" fill="#fff"/>
    <path id="Path_13742" data-name="Path 13742" d="M171.445,21.738a.876.876,0,0,0,1.147,0c7.144-6.191,11.563-9.324,11.563-14.193C184.155,3.693,181.428.5,177.6.5a6.483,6.483,0,0,0-5.683,3.626,6.367,6.367,0,0,0-11.929,1.215.876.876,0,1,0,1.68.493,4.751,4.751,0,0,1,4.566-3.583c2.5,0,4.25,2.218,4.839,4.283a.875.875,0,0,0,1.687,0c.012-.043,1.228-4.283,4.84-4.283,2.74,0,4.807,2.275,4.807,5.293,0,3.895-3.807,6.7-10.386,12.375-4.008-3.442-7.192-5.865-9-8.235a.876.876,0,1,0-1.392,1.063c2.04,2.671,5.483,5.231,9.821,8.991Zm0,0" transform="translate(-145.945 -0.501)" fill="#fff"/>
    <path id="Path_13743" data-name="Path 13743" d="M159.876,88.6a.876.876,0,1,0,.876.876A.876.876,0,0,0,159.876,88.6Zm0,0" transform="translate(-145.079 -80.884)" fill="#fff"/>
  </g>
</svg>
