<svg xmlns="http://www.w3.org/2000/svg" xmlns:xlink="http://www.w3.org/1999/xlink" width="42.882" height="32.965" viewBox="0 0 42.882 32.965">
  <defs>
    <clipPath id="clip-path">
      <rect width="42.882" height="32.965" fill="none"/>
    </clipPath>
  </defs>
  <g id="Component_23_1" data-name="Component 23 – 1" transform="translate(0)" clip-path="url(#clip-path)">
    <g id="Group_8783" data-name="Group 8783">
      <g id="Group_8782" data-name="Group 8782">
        <path id="Path_13710" data-name="Path 13710" d="M42.88,89.09c0-.006,0-.012,0-.019A.616.616,0,0,0,42.868,89l0-.007a.608.608,0,0,0-.018-.064l-.006-.017q-.011-.029-.024-.056l0-.01-3.36-6.626v-21.8A1.217,1.217,0,0,0,38.238,59.2H4.643a1.217,1.217,0,0,0-1.216,1.216v21.8L.068,88.844l0,.01c-.009.018-.017.037-.024.055l-.006.017a.639.639,0,0,0-.018.064l0,.007A.62.62,0,0,0,0,89.071c0,.006,0,.012,0,.019s0,.026,0,.039v1.593a1.446,1.446,0,0,0,1.444,1.444H41.438a1.446,1.446,0,0,0,1.444-1.444V89.129C42.882,89.115,42.881,89.1,42.88,89.09ZM4.684,60.457H38.2V81.74H4.684ZM4.441,83h34l2.791,5.5H27.43l-.693-2.512a1.186,1.186,0,0,0-1.14-.868H17.285a1.186,1.186,0,0,0-1.14.868L15.452,88.5H1.651Zm21.685,5.5H16.755l.586-2.124h8.2Zm15.5,2.222a.188.188,0,0,1-.188.188H1.444a.188.188,0,0,1-.188-.188v-.965H41.626Z" transform="translate(0 -59.201)" fill="#fff"/>
      </g>
    </g>
    <g id="Group_8785" data-name="Group 8785" transform="translate(6.024 12.945)">
      <g id="Group_8784" data-name="Group 8784" transform="translate(0 0)">
        <path id="Path_13711" data-name="Path 13711" d="M102.129,213.756a.628.628,0,0,0-.628.628v6.37H73.179v-6.37a.628.628,0,0,0-1.256,0v6.641a.986.986,0,0,0,.985.985h28.864a.986.986,0,0,0,.985-.985v-6.641A.628.628,0,0,0,102.129,213.756Z" transform="translate(-71.923 -213.756)" fill="#fff"/>
      </g>
    </g>
    <g id="Group_8787" data-name="Group 8787" transform="translate(6.024 2.597)">
      <g id="Group_8786" data-name="Group 8786" transform="translate(0 0)">
        <path id="Path_13712" data-name="Path 13712" d="M101.772,90.2H72.908a.986.986,0,0,0-.985.985v6.641a.628.628,0,0,0,1.256,0v-6.37H101.5v6.37a.628.628,0,1,0,1.256,0V91.188A.986.986,0,0,0,101.772,90.2Z" transform="translate(-71.923 -90.203)" fill="#fff"/>
      </g>
    </g>
  </g>
</svg>
