<svg xmlns="http://www.w3.org/2000/svg" xmlns:xlink="http://www.w3.org/1999/xlink" width="36.373" height="35.381" viewBox="0 0 36.373 35.381">
  <defs>
    <clipPath id="clip-path">
      <rect width="36.373" height="35.381" fill="none"/>
    </clipPath>
  </defs>
  <g id="Component_18_1" data-name="Component 18 – 1" transform="translate(0)" clip-path="url(#clip-path)">
    <path id="Path_104" data-name="Path 104" d="M14,32.244h8.487V26.182H14Zm1.212-1.212V29.213h6.062v1.819Zm6.062-3.637V28H15.212v-.606Z" transform="translate(-5.513 -10.806)" fill="#fff"/>
    <path id="Path_105" data-name="Path 105" d="M14,40.182v7.275h8.487V40.182Zm3.637,1.212v1.819H15.212V41.394Zm-2.425,3.031h2.425v1.819H15.212Zm3.637,1.819V44.425h2.425v1.819Zm2.425-3.031H18.85V41.394h2.425Z" transform="translate(-5.513 -16.319)" fill="#fff"/>
    <path id="Path_106" data-name="Path 106" d="M32,32.244h8.487V26.182H32Zm1.212-1.212v-.606h6.062v.606Zm6.062-3.637v1.819H33.212V27.394Z" transform="translate(-12.601 -10.806)" fill="#fff"/>
    <path id="Path_107" data-name="Path 107" d="M35.766,29.531a.606.606,0,0,0-.606.606v.606h-.606v-.606a.606.606,0,0,0-1.212,0v.606h-.606V18.5a2.418,2.418,0,0,0,3.4-2.4,2.435,2.435,0,0,0-.923-1.717L19.836,2.35,18.186.818l-1.611,1.5L1.16,14.378a2.424,2.424,0,0,0-.282,3.559,2.406,2.406,0,0,0,2.76.559V30.744H3.031v-.606a.606.606,0,1,0-1.212,0v.606H1.212v-.606a.606.606,0,1,0-1.212,0v5.456a.606.606,0,0,0,1.212,0v-.606h.606v.606a.606.606,0,0,0,1.212,0v-.606h.606V36.2h29.1V34.987h.606v.606a.606.606,0,0,0,1.212,0v-.606h.606v.606a.606.606,0,0,0,1.212,0V30.137A.606.606,0,0,0,35.766,29.531Zm-34-12.419a1.212,1.212,0,0,1,.142-1.779L17.362,3.239l.825-.767.863.8L34.466,15.332a1.212,1.212,0,0,1-1.486,1.914l-.244-.188h0L18.186,5.843,3.874,16.877h0l-.48.369A1.206,1.206,0,0,1,1.765,17.111ZM1.212,33.774V31.955h.606v1.819Zm1.819,0V31.955h.606v1.819Zm17.58,1.212V25.893h6.062v9.093Zm10.912,0H27.886V24.681H19.4V34.986H4.85V17.654L18.186,7.374,31.523,17.654Zm1.212-1.212V31.955h.606v1.819Zm1.819,0V31.955h.606v1.819Z" transform="translate(0 -0.818)" fill="#fff"/>
  </g>
</svg>
