<svg xmlns="http://www.w3.org/2000/svg" xmlns:xlink="http://www.w3.org/1999/xlink" width="38.666" height="39.154" viewBox="0 0 38.666 39.154">
  <defs>
    <clipPath id="clip-path">
      <rect width="38.666" height="39.154" fill="none"/>
    </clipPath>
  </defs>
  <g id="Component_27_1" data-name="Component 27 – 1" transform="translate(0)" clip-path="url(#clip-path)">
    <path id="Path_13720" data-name="Path 13720" d="M318.97,63.279a.574.574,0,1,0-1.1.342c.009.029.828,2.721-.431,4.469a4.357,4.357,0,0,1-2.577-3.258.574.574,0,1,0-1.13.205,5.488,5.488,0,0,0,3.739,4.287.574.574,0,0,0,.573-.163,5.248,5.248,0,0,0,1.239-3.81A8.412,8.412,0,0,0,318.97,63.279Z" transform="translate(-289.958 -58.063)" fill="#fff"/>
    <path id="Path_13721" data-name="Path 13721" d="M397.32,61.95a.823.823,0,1,0,.823.823A.824.824,0,0,0,397.32,61.95Z" transform="translate(-366.394 -57.208)" fill="#fff"/>
    <path id="Path_13722" data-name="Path 13722" d="M7.423,16.311a7.265,7.265,0,0,0-.757,3.719q.007.111.016.223a6.948,6.948,0,0,1-.565,3.011.574.574,0,1,0,1.07.416,8.061,8.061,0,0,0,.639-3.52q-.008-.1-.014-.2a6.124,6.124,0,0,1,.84-3.506A.574.574,0,0,0,8.5,15.7a11.2,11.2,0,0,1-3.516-4.64c-1.645-3.978.331-8.7.744-9.6l.022-.05a.432.432,0,1,1,.793.344A13.663,13.663,0,0,0,5.8,4.462a.574.574,0,1,0,1.131.2A12.558,12.558,0,0,1,7.6,2.208,1.58,1.58,0,0,0,4.7.956l-.013.03A17.624,17.624,0,0,0,3.5,4.685,11.6,11.6,0,0,0,3.927,11.5,12.374,12.374,0,0,0,7.423,16.311Z" transform="translate(-3.19 -0.003)" fill="#fff"/>
    <path id="Path_13723" data-name="Path 13723" d="M41.861,7.332c.018-.19.028-.38.028-.571a.574.574,0,0,0-.353-.53l-1.073-.447h0L37.011,4.346l-1.368-1.81A6.421,6.421,0,0,0,30.548,0a5.008,5.008,0,0,0-4.629,3.078l-3.088,7.364L12.826.226a.574.574,0,1,0-.82.8L22.349,11.591l-.257.614H14.116A7.428,7.428,0,0,0,10.3,13.254,7.239,7.239,0,0,1,7.371,9.9a8.251,8.251,0,0,1-.592-3.071.574.574,0,0,0-.574-.567H6.2a.574.574,0,0,0-.567.581,9.389,9.389,0,0,0,.679,3.5,8.47,8.47,0,0,0,3.707,4.081.574.574,0,0,0,.607-.018,6.283,6.283,0,0,1,3.491-1.053h8.256L33.2,17.338v2.981a4.335,4.335,0,0,1-4.33,4.33.574.574,0,0,0-.574.574V35.9a.574.574,0,0,0,.574.574,2.2,2.2,0,0,1,2.049,1.021,2.532,2.532,0,0,1,.23.516H27.1a1.821,1.821,0,0,1-1.819-1.819V25.041a.574.574,0,0,0-.574-.574H15.274a.574.574,0,0,0-.494.281c-2,3.364-6.935,4.961-6.984,4.976a.574.574,0,0,0-.4.547V35.9a.574.574,0,0,0,.574.574,2.2,2.2,0,0,1,2.049,1.021,2.532,2.532,0,0,1,.23.516H6.193a1.821,1.821,0,0,1-1.819-1.819V30.1a5.142,5.142,0,0,1,.981-3.02c.284-.394.559-.818.818-1.26a.574.574,0,0,0-.991-.58c-.24.41-.5.8-.759,1.169a6.283,6.283,0,0,0-1.2,3.691v6.083a2.97,2.97,0,0,0,2.967,2.967h4.75a.58.58,0,0,0,.574-.594,3.392,3.392,0,0,0-2.974-3.205V30.68a18.944,18.944,0,0,0,2.566-1.174v5.615a2.97,2.97,0,0,0,2.967,2.967h4.75a.58.58,0,0,0,.574-.595,3.392,3.392,0,0,0-2.974-3.205V29.613a16.336,16.336,0,0,0,6.231-4h1.475V36.188A2.97,2.97,0,0,0,27.1,39.154h4.75a.58.58,0,0,0,.574-.594,3.216,3.216,0,0,0-.068-.472h2.969a.58.58,0,0,0,.574-.595,3.392,3.392,0,0,0-2.974-3.205v-3.9a.574.574,0,1,0-1.148,0v4.441a.574.574,0,0,0,.574.574,2.166,2.166,0,0,1,2.288,1.537H31.926a3.124,3.124,0,0,0-2.478-1.585V25.768a5.441,5.441,0,0,0,2.327-.8v3.128a.574.574,0,0,0,1.148,0V24.005a5.457,5.457,0,0,0,1.429-3.686V12.06h2.17a5.412,5.412,0,0,0,4.086-1.819,5.068,5.068,0,0,0,1.251-2.889ZM15.679,28.657a.574.574,0,0,0-.4.547v5.624a.574.574,0,0,0,.574.574A2.166,2.166,0,0,1,18.14,36.94H14.076a1.821,1.821,0,0,1-1.819-1.819V28.815a11.447,11.447,0,0,0,3.335-3.2h5.445A16.743,16.743,0,0,1,15.679,28.657Zm7.555-16.21.569-1.357,9.4,3.533v1.491Zm16.51-2.963a4.264,4.264,0,0,1-3.222,1.427H33.779a.574.574,0,0,0-.574.574V13.4l-8.956-3.366,2.73-6.509a3.862,3.862,0,0,1,3.57-2.374,5.267,5.267,0,0,1,4.18,2.08l1.461,1.934a.573.573,0,0,0,.237.184l3.311,1.38a2.542,2.542,0,0,0,.821,1.3A3.938,3.938,0,0,1,39.745,9.484Z" transform="translate(-3.223)" fill="#fff"/>
  </g>
</svg>
