<svg xmlns="http://www.w3.org/2000/svg" xmlns:xlink="http://www.w3.org/1999/xlink" width="41.996" height="41.997" viewBox="0 0 41.996 41.997">
  <defs>
    <clipPath id="clip-path">
      <rect width="41.996" height="41.997" fill="none"/>
    </clipPath>
  </defs>
  <g id="Component_28_1" data-name="Component 28 – 1" transform="translate(0)" clip-path="url(#clip-path)">
    <path id="Path_13724" data-name="Path 13724" d="M.4,3.923l2.8,4.9a.7.7,0,0,0,.437.332L6.251,9.8l8.955,8.955.989-.989-9.1-9.1a.7.7,0,0,0-.325-.184L4.266,7.862,1.884,3.69,3.927,1.647,8.1,4.032l.63,2.509a.7.7,0,0,0,.184.325l9.1,9.1L19,14.972,10.043,6.017l-.653-2.61a.7.7,0,0,0-.332-.438l-4.9-2.8a.7.7,0,0,0-.84.113l-2.8,2.8a.7.7,0,0,0-.12.841Zm0,0" transform="translate(-0.311 -0.073)" fill="#fff"/>
    <path id="Path_13725" data-name="Path 13725" d="M190.363,174.709,174.971,190.1l-.989-.99,15.392-15.392Zm0,0" transform="translate(-161.183 -160.92)" fill="#fff"/>
    <path id="Path_13726" data-name="Path 13726" d="M55.349,399.175a.7.7,0,0,0-.6-.339h-4.2a.7.7,0,0,0-.6.339l-2.1,3.5a.7.7,0,0,0,0,.721l2.1,3.5a.7.7,0,0,0,.6.339h4.2a.7.7,0,0,0,.6-.339l2.1-3.5a.7.7,0,0,0,0-.721Zm-1,6.657H50.948l-1.679-2.8,1.679-2.8h3.406l1.679,2.8Zm0,0" transform="translate(-44.255 -369.449)" fill="#fff"/>
    <path id="Path_13727" data-name="Path 13727" d="M33.856,16.793A8.367,8.367,0,0,0,41.994,6.368a.7.7,0,0,0-1.173-.326l-4.355,4.352L33.01,9.243,31.858,5.788l4.355-4.356A.7.7,0,0,0,35.885.258,8.37,8.37,0,0,0,25.461,8.4a8.212,8.212,0,0,0,.17,1.639L10.308,25.358a8.254,8.254,0,0,0-1.639-.17,8.4,8.4,0,1,0,8.4,8.4,8.233,8.233,0,0,0-.17-1.639l3.668-3.668,1.6,1.6a.7.7,0,0,0,.989,0l.35-.35a.785.785,0,0,1,1.111,1.108h0l-.35.35a.7.7,0,0,0,0,.989l8.346,8.346a5.647,5.647,0,1,0,8.022-7.949l-.036-.036-8.346-8.346a.7.7,0,0,0-.989,0l-.35.35A.785.785,0,0,1,29.8,23.235h0l.35-.35a.7.7,0,0,0,0-.989l-1.6-1.6,3.668-3.668a8.232,8.232,0,0,0,1.639.17ZM36.6,40.58a4.252,4.252,0,0,1-1.488-.271l5.464-5.464A4.243,4.243,0,0,1,36.6,40.58ZM28.679,22.4a2.183,2.183,0,0,0,3.078,3.074l7.852,7.858c.085.085.165.176.242.267l-5.982,5.982c-.092-.077-.182-.157-.267-.242l-7.858-7.858A2.184,2.184,0,0,0,22.665,28.4l-1.119-1.119,6.013-6ZM31.5,15.36,15.633,31.228a.7.7,0,0,0-.185.665A7.043,7.043,0,1,1,10.36,26.8a.706.706,0,0,0,.665-.184L26.893,10.752a.7.7,0,0,0,.184-.665,6.962,6.962,0,0,1,7.177-8.675L30.563,5.1a.7.7,0,0,0-.169.715l1.4,4.2a.7.7,0,0,0,.443.442l4.2,1.4a.7.7,0,0,0,.715-.169L40.84,8c.008.134.013.266.013.4a6.96,6.96,0,0,1-8.687,6.779.7.7,0,0,0-.665.184h0Zm0,0" transform="translate(-0.274 0)" fill="#fff"/>
    <path id="Path_13728" data-name="Path 13728" d="M390.876,389.621l-.99.99-7-7,.989-.99Zm0,0" transform="translate(-354.699 -354.433)" fill="#fff"/>
  </g>
</svg>
