<svg id="facebook-logo" xmlns="http://www.w3.org/2000/svg" width="20.477" height="37.875" viewBox="0 0 20.477 37.875">
  <path id="Path_183" data-name="Path 183" d="M41.783.008,36.872,0c-5.518,0-9.084,3.659-9.084,9.321v4.3H22.849a.772.772,0,0,0-.772.773v6.227a.772.772,0,0,0,.772.772h4.938V37.1a.772.772,0,0,0,.772.772H35a.772.772,0,0,0,.772-.772V21.391H41.55a.772.772,0,0,0,.772-.772l0-6.227a.773.773,0,0,0-.773-.773H35.775V9.976c0-1.751.417-2.64,2.7-2.64h3.309a.772.772,0,0,0,.772-.772V.78A.773.773,0,0,0,41.783.008Z" transform="translate(-22.077)" fill="#989898"/>
</svg>
