<svg xmlns="http://www.w3.org/2000/svg" width="35.136" height="27.606" viewBox="0 0 35.136 27.606">
  <g id="Group_8957" data-name="Group 8957" transform="translate(-1159 -600)">
    <g id="envelope" transform="translate(1159 600)">
      <g id="Group_120" data-name="Group 120" transform="translate(0 0)">
        <path id="Path_181" data-name="Path 181" d="M3.372,63.329q.667.47,4.019,2.794T12.529,69.7q.2.138.833.6t1.059.745q.422.284,1.02.637a5.916,5.916,0,0,0,1.127.529,3.107,3.107,0,0,0,.98.176h.039a3.109,3.109,0,0,0,.98-.176,5.923,5.923,0,0,0,1.127-.529q.6-.353,1.019-.637t1.059-.745q.637-.461.833-.6,1.8-1.255,9.176-6.372a9.314,9.314,0,0,0,2.392-2.412,5.178,5.178,0,0,0,.961-2.96A3.164,3.164,0,0,0,32,54.82H3.137A2.8,2.8,0,0,0,.814,55.839,3.958,3.958,0,0,0,0,58.388a4.58,4.58,0,0,0,1.078,2.677A9.732,9.732,0,0,0,3.372,63.329Z" transform="translate(0 -54.82)" fill="#989898"/>
        <path id="Path_182" data-name="Path 182" d="M33.175,186.143q-6.43,4.352-9.764,6.764-1.118.823-1.814,1.284a11.191,11.191,0,0,1-1.853.941,5.642,5.642,0,0,1-2.156.48h-.04a5.644,5.644,0,0,1-2.157-.48,11.2,11.2,0,0,1-1.853-.941q-.7-.46-1.813-1.284-2.647-1.941-9.745-6.764A10.385,10.385,0,0,1,0,184.437V200a3.02,3.02,0,0,0,.921,2.216,3.02,3.02,0,0,0,2.216.922H32A3.147,3.147,0,0,0,35.136,200V184.437A10.811,10.811,0,0,1,33.175,186.143Z" transform="translate(0 -175.536)" fill="#989898"/>
      </g>
    </g>
  </g>
</svg>
