<svg xmlns="http://www.w3.org/2000/svg" width="34.803" height="34.803" viewBox="0 0 34.803 34.803">
  <g id="Group_8958" data-name="Group 8958" transform="translate(-1073 -597)">
    <g id="whatsapp-logo" transform="translate(1073 597)">
      <path id="WhatsApp" d="M34.8,16.953A17.113,17.113,0,0,1,9.459,31.8L0,34.8l3.084-9.1A16.775,16.775,0,0,1,.632,16.953a17.086,17.086,0,0,1,34.17,0ZM17.718,2.7A14.325,14.325,0,0,0,3.353,16.953,14.1,14.1,0,0,0,6.09,25.31L4.3,30.6l5.52-1.754A14.378,14.378,0,0,0,32.082,16.954,14.326,14.326,0,0,0,17.718,2.7Zm8.628,18.158c-.106-.173-.384-.277-.8-.485s-2.479-1.213-2.862-1.352-.664-.208-.943.208-1.082,1.352-1.326,1.629-.488.313-.908.1A11.463,11.463,0,0,1,16.137,18.9a12.528,12.528,0,0,1-2.33-2.877c-.244-.416-.026-.64.184-.847.189-.186.419-.485.628-.728a2.785,2.785,0,0,0,.418-.693A.757.757,0,0,0,15,13.026c-.1-.208-.943-2.253-1.292-3.085s-.7-.693-.942-.693-.524-.035-.8-.035a1.546,1.546,0,0,0-1.117.52A4.647,4.647,0,0,0,9.384,13.2a8.041,8.041,0,0,0,1.71,4.3c.209.277,2.9,4.609,7.154,6.273s4.258,1.108,5.026,1.039A4.236,4.236,0,0,0,26.1,22.834,3.464,3.464,0,0,0,26.345,20.858Z" transform="translate(0 0)" fill="#989898"/>
    </g>
  </g>
</svg>
