<svg xmlns="http://www.w3.org/2000/svg" width="35.839" height="35.839" viewBox="0 0 35.839 35.839">
  <g id="Group_8960" data-name="Group 8960" transform="translate(-899 -596)">
    <g id="instagram-logo" transform="translate(899 596)">
      <path id="Path_184" data-name="Path 184" d="M25.949,0H9.89A9.9,9.9,0,0,0,0,9.89V25.949a9.9,9.9,0,0,0,9.89,9.89H25.949a9.9,9.9,0,0,0,9.891-9.89V9.89A9.9,9.9,0,0,0,25.949,0ZM32.66,25.949a6.718,6.718,0,0,1-6.711,6.71H9.89a6.718,6.718,0,0,1-6.71-6.71V9.89A6.718,6.718,0,0,1,9.89,3.18H25.949a6.718,6.718,0,0,1,6.711,6.71V25.949Z" fill="#989898"/>
      <path id="Path_185" data-name="Path 185" d="M50.2,40.97A9.235,9.235,0,1,0,59.438,50.2,9.245,9.245,0,0,0,50.2,40.97Zm0,15.289A6.055,6.055,0,1,1,56.258,50.2,6.062,6.062,0,0,1,50.2,56.259Z" transform="translate(-32.283 -32.285)" fill="#989898"/>
      <path id="Path_186" data-name="Path 186" d="M121.253,28.251a2.331,2.331,0,1,0,1.649.683A2.341,2.341,0,0,0,121.253,28.251Z" transform="translate(-93.711 -22.262)" fill="#989898"/>
    </g>
  </g>
</svg>
