<svg xmlns="http://www.w3.org/2000/svg" width="29.866" height="35.839" viewBox="0 0 29.866 35.839">
  <g id="Group_8959" data-name="Group 8959" transform="translate(-988 -596)">
    <g id="youtube-logo" transform="translate(988 596)">
      <path id="YouTube" d="M32.762,26.215H30.8l.009-1.142a.927.927,0,0,1,.926-.923h.125a.929.929,0,0,1,.929.923Zm-7.377-2.448a.841.841,0,0,0-.907.746v5.556a.926.926,0,0,0,1.817,0V24.513A.842.842,0,0,0,25.385,23.767Zm11.981-3.108v10.57a4.768,4.768,0,0,1-4.886,4.61H12.386A4.768,4.768,0,0,1,7.5,31.229V20.659a4.768,4.768,0,0,1,4.886-4.61H32.48A4.768,4.768,0,0,1,37.366,20.659ZM13.727,32.377l0-11.134h2.491v-1.65l-6.64-.01v1.622l2.073.006V32.377ZM21.193,22.9H19.117v5.946a10.538,10.538,0,0,1,0,1.442c-.169.461-.928.951-1.224.05a11.833,11.833,0,0,1-.007-1.451L17.875,22.9H15.809l.006,5.893c0,.9-.02,1.577.007,1.883.051.54.033,1.17.534,1.53.934.673,2.725-.1,3.173-1.062l0,1.228,1.668,0V22.9Zm6.643,6.809,0-4.949c0-1.886-1.412-3.015-3.327-1.489l.008-3.679-2.074,0-.01,12.7,1.706-.025.155-.791C26.47,33.479,27.84,32.108,27.837,29.709Zm6.5-.656-1.557.008c0,.062,0,.133,0,.211v.869a.85.85,0,0,1-.851.844h-.305a.85.85,0,0,1-.852-.844V27.856h3.566V26.514a21.173,21.173,0,0,0-.106-2.522c-.255-1.774-2.745-2.055-4-1.147a2.344,2.344,0,0,0-.871,1.173,6.6,6.6,0,0,0-.265,2.092v2.951C29.089,33.966,35.047,33.273,34.336,29.054ZM26.349,13.034a1.414,1.414,0,0,0,.5.631,1.447,1.447,0,0,0,.85.236,1.322,1.322,0,0,0,.8-.248,1.908,1.908,0,0,0,.583-.745l-.039.815h2.315V3.879H29.529V11.54a.759.759,0,0,1-1.518,0V3.879h-1.9v6.64c0,.846.016,1.41.041,1.7A2.854,2.854,0,0,0,26.349,13.034Zm-7.015-5.56a8.192,8.192,0,0,1,.235-2.215A2.37,2.37,0,0,1,21.989,3.5a2.871,2.871,0,0,1,1.377.311,2.3,2.3,0,0,1,.888.808,3.186,3.186,0,0,1,.428,1.025A8.175,8.175,0,0,1,24.8,7.253v2.49a13.479,13.479,0,0,1-.108,2.011,3.188,3.188,0,0,1-.456,1.2,2.164,2.164,0,0,1-.891.819,2.843,2.843,0,0,1-1.256.264,3.488,3.488,0,0,1-1.338-.225,1.837,1.837,0,0,1-.854-.683,3.03,3.03,0,0,1-.435-1.1,10.638,10.638,0,0,1-.129-1.941V7.474Zm1.813,3.91a.924.924,0,1,0,1.839,0V6.144a.924.924,0,1,0-1.839,0ZM14.74,14.031h2.184l0-7.55L19.507.013H17.118l-1.372,4.8L14.355,0H11.991l2.745,6.484Z" transform="translate(-7.5)" fill="#989898"/>
    </g>
  </g>
</svg>
