<svg xmlns="http://www.w3.org/2000/svg" width="37.237" height="30.247" viewBox="0 0 37.237 30.247">
  <g id="twitter-logo-silhouette" transform="translate(0)">
    <g id="Group_121" data-name="Group 121" transform="translate(0 0)">
      <path id="Path_187" data-name="Path 187" d="M37.238,61.02a15.254,15.254,0,0,1-4.386,1.2A7.67,7.67,0,0,0,36.209,58a15.4,15.4,0,0,1-4.854,1.855,7.645,7.645,0,0,0-13.016,6.964A21.687,21.687,0,0,1,2.6,58.837a7.648,7.648,0,0,0,2.364,10.2,7.639,7.639,0,0,1-3.46-.959v.1a7.646,7.646,0,0,0,6.127,7.49,7.737,7.737,0,0,1-2.013.268,7.332,7.332,0,0,1-1.438-.142,7.643,7.643,0,0,0,7.134,5.305,15.326,15.326,0,0,1-9.487,3.265A16.233,16.233,0,0,1,0,84.251,21.592,21.592,0,0,0,11.71,87.688c14.052,0,21.733-11.639,21.733-21.733l-.026-.989A15.254,15.254,0,0,0,37.238,61.02Z" transform="translate(-0.001 -57.441)" fill="#989898"/>
    </g>
  </g>
</svg>
