<svg id="clock" xmlns="http://www.w3.org/2000/svg" width="14.709" height="14.709" viewBox="0 0 14.709 14.709">
  <g id="Group_367" data-name="Group 367">
    <g id="Group_366" data-name="Group 366">
      <path id="Path_983" data-name="Path 983" d="M7.355,0a7.355,7.355,0,1,0,7.355,7.355A7.355,7.355,0,0,0,7.355,0ZM7.67,14.063V12.769a.316.316,0,0,0-.631,0v1.294A6.72,6.72,0,0,1,.647,7.67H1.94a.316.316,0,0,0,0-.631H.647A6.72,6.72,0,0,1,7.039.647V1.94a.316.316,0,1,0,.631,0V.647a6.72,6.72,0,0,1,6.392,6.392H12.769a.316.316,0,0,0,0,.631h1.3A6.72,6.72,0,0,1,7.67,14.063Z" fill="#ff9e00"/>
    </g>
  </g>
  <g id="Group_369" data-name="Group 369" transform="translate(7.039 3.726)">
    <g id="Group_368" data-name="Group 368">
      <path id="Path_984" data-name="Path 984" d="M182.124,101.043l-3.013-3.064V94.8a.316.316,0,0,0-.631,0v3.313a.315.315,0,0,0,.091.221l3.1,3.155a.316.316,0,1,0,.451-.442Z" transform="translate(-178.48 -94.48)" fill="#ff9e00"/>
    </g>
  </g>
</svg>
