<svg xmlns="http://www.w3.org/2000/svg" xmlns:xlink="http://www.w3.org/1999/xlink" width="29.364" height="30.429" viewBox="0 0 29.364 30.429">
  <defs>
    <clipPath id="clip-path">
      <rect width="29.364" height="30.429" fill="none"/>
    </clipPath>
  </defs>
  <g id="_002-notification" data-name="002-notification" transform="translate(0)" clip-path="url(#clip-path)">
    <path id="_002-notification-2" data-name="002-notification" d="M28.21,23.482C25.57,21.1,23.128,17.75,23.128,9.376A8.636,8.636,0,0,0,14.683.58a8.636,8.636,0,0,0-8.446,8.8c0,8.382-2.442,11.733-5.084,14.108A3.546,3.546,0,0,0,0,26.109a.981.981,0,0,0,.961,1h9.117a4.762,4.762,0,0,0,4.6,3.9,4.762,4.762,0,0,0,4.6-3.9H28.4a.981.981,0,0,0,.961-1A3.525,3.525,0,0,0,28.21,23.482ZM14.682,29.007a2.8,2.8,0,0,1-2.611-1.9h5.221A2.8,2.8,0,0,1,14.682,29.007ZM2.3,25.109A1.442,1.442,0,0,1,2.411,25C6.439,21.374,8.157,16.7,8.157,9.376a6.671,6.671,0,0,1,6.525-6.794,6.671,6.671,0,0,1,6.524,6.794c0,7.321,1.719,11.992,5.748,15.621a1.455,1.455,0,0,1,.112.112Z" transform="translate(0 -0.58)" fill="#c1c1c1"/>
  </g>
</svg>
