<svg xmlns="http://www.w3.org/2000/svg" xmlns:xlink="http://www.w3.org/1999/xlink" width="25.143" height="20.115" viewBox="0 0 25.143 20.115">
  <defs>
    <clipPath id="clip-path">
      <rect width="25.143" height="20.115" fill="none"/>
    </clipPath>
  </defs>
  <g id="photo-camera" clip-path="url(#clip-path)">
    <g id="Group_158" data-name="Group 158">
      <path id="Path_705" data-name="Path 705" d="M12.572,17.543a3.771,3.771,0,1,0,3.771,3.771A3.772,3.772,0,0,0,12.572,17.543Zm10.057-3.771H19.612a1.12,1.12,0,0,1-.993-.716l-.78-2.341A1.12,1.12,0,0,0,16.846,10H8.3a1.12,1.12,0,0,0-.993.716l-.78,2.341a1.12,1.12,0,0,1-.993.715H2.514A2.522,2.522,0,0,0,0,16.286V27.6a2.522,2.522,0,0,0,2.514,2.514H22.629A2.522,2.522,0,0,0,25.143,27.6V16.286A2.522,2.522,0,0,0,22.629,13.771ZM12.572,27.6a6.286,6.286,0,1,1,6.286-6.286A6.286,6.286,0,0,1,12.572,27.6Zm9.177-9.556a.88.88,0,1,1,.88-.88A.88.88,0,0,1,21.749,18.044Z" transform="translate(0 -10)" fill="#fff"/>
    </g>
  </g>
</svg>
