<svg xmlns="http://www.w3.org/2000/svg" xmlns:xlink="http://www.w3.org/1999/xlink" width="31.347" height="27.369" viewBox="0 0 31.347 27.369">
  <defs>
    <clipPath id="clip-path">
      <rect width="31.346" height="27.369" fill="none"/>
    </clipPath>
  </defs>
  <g id="shop" transform="translate(0)" clip-path="url(#clip-path)">
    <g id="Group_159" data-name="Group 159">
      <path id="Path_706" data-name="Path 706" d="M253.076,263.75h-3.259a1.619,1.619,0,0,0-1.617,1.617v2.5a1.619,1.619,0,0,0,1.617,1.617h3.259a1.619,1.619,0,0,0,1.617-1.617v-2.5A1.619,1.619,0,0,0,253.076,263.75Zm.441,4.117a.442.442,0,0,1-.441.441h-3.259a.442.442,0,0,1-.441-.441v-2.5a.442.442,0,0,1,.441-.441h3.259a.442.442,0,0,1,.441.441Z" transform="translate(-230.917 -247.525)" fill="#ff9e00"/>
      <path id="Path_707" data-name="Path 707" d="M31.346,40.017a.714.714,0,0,0-.1-.378l-4.663-8.2a.773.773,0,0,0-.666-.391H5.425a.76.76,0,0,0-.666.391L.1,39.639a.777.777,0,0,0-.1.378,4.5,4.5,0,0,0,2.69,4.112V57.651a.771.771,0,0,0,.769.769H27.881a.771.771,0,0,0,.769-.769V44.225a.338.338,0,0,0-.006-.083A4.509,4.509,0,0,0,31.346,40.017ZM5.873,32.594H25.467l3.644,6.412H2.235Zm16.435,7.942a2.954,2.954,0,0,1-5.816,0Zm-7.449,0a2.958,2.958,0,0,1-5.822,0Zm-13.271,0H7.411a2.958,2.958,0,0,1-5.822,0ZM12.913,56.882H8.493V48.587a1.1,1.1,0,0,1,1.1-1.1h2.235a1.1,1.1,0,0,1,1.1,1.1v8.295Zm14.2,0H14.45V48.587a2.637,2.637,0,0,0-2.632-2.633H9.582A2.637,2.637,0,0,0,6.95,48.587v8.3H4.227V44.507c.09.006.179.006.269.006a4.491,4.491,0,0,0,3.728-1.986,4.492,4.492,0,0,0,7.456,0,4.48,4.48,0,0,0,7.443,0,4.491,4.491,0,0,0,3.728,1.986c.09,0,.173-.006.263-.006V56.882ZM26.85,42.976a2.953,2.953,0,0,1-2.908-2.434h5.822A2.971,2.971,0,0,1,26.85,42.976Z" transform="translate(0 -31.05)" fill="#ff9e00"/>
    </g>
  </g>
</svg>
